<mxfile host="app.diagrams.net" modified="2024-03-24T23:24:51.822Z" agent="Mozilla/5.0 (Windows NT 10.0; Win64; x64) AppleWebKit/537.36 (KHTML, like Gecko) Chrome/122.0.0.0 Safari/537.36" etag="FLNkUMzyuonhZhI6cS9z" version="24.1.0" type="device">
  <diagram name="Page-1" id="WaeqWIhlGa74d4xSk_S9">
    <mxGraphModel dx="1434" dy="790" grid="1" gridSize="10" guides="1" tooltips="1" connect="1" arrows="1" fold="1" page="1" pageScale="1" pageWidth="827" pageHeight="1169" math="0" shadow="0">
      <root>
        <mxCell id="0" />
        <mxCell id="1" parent="0" />
        <mxCell id="ITqkuAKIRvQ48ZlTeJZX-1" value="&lt;i&gt;Student&lt;/i&gt;" style="swimlane;fontStyle=1;align=center;verticalAlign=top;childLayout=stackLayout;horizontal=1;startSize=26;horizontalStack=0;resizeParent=1;resizeParentMax=0;resizeLast=0;collapsible=1;marginBottom=0;whiteSpace=wrap;html=1;" vertex="1" parent="1">
          <mxGeometry x="304" y="40" width="220" height="190" as="geometry" />
        </mxCell>
        <mxCell id="ITqkuAKIRvQ48ZlTeJZX-2" value="- studentNumber: String" style="text;strokeColor=none;fillColor=none;align=left;verticalAlign=top;spacingLeft=4;spacingRight=4;overflow=hidden;rotatable=0;points=[[0,0.5],[1,0.5]];portConstraint=eastwest;whiteSpace=wrap;html=1;" vertex="1" parent="ITqkuAKIRvQ48ZlTeJZX-1">
          <mxGeometry y="26" width="220" height="26" as="geometry" />
        </mxCell>
        <mxCell id="ITqkuAKIRvQ48ZlTeJZX-5" value="- studentName: String" style="text;strokeColor=none;fillColor=none;align=left;verticalAlign=top;spacingLeft=4;spacingRight=4;overflow=hidden;rotatable=0;points=[[0,0.5],[1,0.5]];portConstraint=eastwest;whiteSpace=wrap;html=1;" vertex="1" parent="ITqkuAKIRvQ48ZlTeJZX-1">
          <mxGeometry y="52" width="220" height="26" as="geometry" />
        </mxCell>
        <mxCell id="ITqkuAKIRvQ48ZlTeJZX-6" value="- studentEmail: String" style="text;strokeColor=none;fillColor=none;align=left;verticalAlign=top;spacingLeft=4;spacingRight=4;overflow=hidden;rotatable=0;points=[[0,0.5],[1,0.5]];portConstraint=eastwest;whiteSpace=wrap;html=1;" vertex="1" parent="ITqkuAKIRvQ48ZlTeJZX-1">
          <mxGeometry y="78" width="220" height="26" as="geometry" />
        </mxCell>
        <mxCell id="ITqkuAKIRvQ48ZlTeJZX-7" value="- studentAverageScore: float" style="text;strokeColor=none;fillColor=none;align=left;verticalAlign=top;spacingLeft=4;spacingRight=4;overflow=hidden;rotatable=0;points=[[0,0.5],[1,0.5]];portConstraint=eastwest;whiteSpace=wrap;html=1;" vertex="1" parent="ITqkuAKIRvQ48ZlTeJZX-1">
          <mxGeometry y="104" width="220" height="26" as="geometry" />
        </mxCell>
        <mxCell id="ITqkuAKIRvQ48ZlTeJZX-8" value="- studentQtdSubject: int" style="text;strokeColor=none;fillColor=none;align=left;verticalAlign=top;spacingLeft=4;spacingRight=4;overflow=hidden;rotatable=0;points=[[0,0.5],[1,0.5]];portConstraint=eastwest;whiteSpace=wrap;html=1;" vertex="1" parent="ITqkuAKIRvQ48ZlTeJZX-1">
          <mxGeometry y="130" width="220" height="26" as="geometry" />
        </mxCell>
        <mxCell id="ITqkuAKIRvQ48ZlTeJZX-3" value="" style="line;strokeWidth=1;fillColor=none;align=left;verticalAlign=middle;spacingTop=-1;spacingLeft=3;spacingRight=3;rotatable=0;labelPosition=right;points=[];portConstraint=eastwest;strokeColor=inherit;" vertex="1" parent="ITqkuAKIRvQ48ZlTeJZX-1">
          <mxGeometry y="156" width="220" height="8" as="geometry" />
        </mxCell>
        <mxCell id="ITqkuAKIRvQ48ZlTeJZX-9" value="+ toString(): String" style="text;strokeColor=none;fillColor=none;align=left;verticalAlign=top;spacingLeft=4;spacingRight=4;overflow=hidden;rotatable=0;points=[[0,0.5],[1,0.5]];portConstraint=eastwest;whiteSpace=wrap;html=1;" vertex="1" parent="ITqkuAKIRvQ48ZlTeJZX-1">
          <mxGeometry y="164" width="220" height="26" as="geometry" />
        </mxCell>
        <mxCell id="ITqkuAKIRvQ48ZlTeJZX-10" value="StudentCollege" style="swimlane;fontStyle=1;align=center;verticalAlign=top;childLayout=stackLayout;horizontal=1;startSize=26;horizontalStack=0;resizeParent=1;resizeParentMax=0;resizeLast=0;collapsible=1;marginBottom=0;whiteSpace=wrap;html=1;" vertex="1" parent="1">
          <mxGeometry x="84" y="350" width="220" height="112" as="geometry" />
        </mxCell>
        <mxCell id="ITqkuAKIRvQ48ZlTeJZX-11" value="- studentHighSchoolName: String" style="text;strokeColor=none;fillColor=none;align=left;verticalAlign=top;spacingLeft=4;spacingRight=4;overflow=hidden;rotatable=0;points=[[0,0.5],[1,0.5]];portConstraint=eastwest;whiteSpace=wrap;html=1;" vertex="1" parent="ITqkuAKIRvQ48ZlTeJZX-10">
          <mxGeometry y="26" width="220" height="26" as="geometry" />
        </mxCell>
        <mxCell id="ITqkuAKIRvQ48ZlTeJZX-15" value="- studentHighSchollConclusionYear: int" style="text;strokeColor=none;fillColor=none;align=left;verticalAlign=top;spacingLeft=4;spacingRight=4;overflow=hidden;rotatable=0;points=[[0,0.5],[1,0.5]];portConstraint=eastwest;whiteSpace=wrap;html=1;" vertex="1" parent="ITqkuAKIRvQ48ZlTeJZX-10">
          <mxGeometry y="52" width="220" height="26" as="geometry" />
        </mxCell>
        <mxCell id="ITqkuAKIRvQ48ZlTeJZX-16" value="" style="line;strokeWidth=1;fillColor=none;align=left;verticalAlign=middle;spacingTop=-1;spacingLeft=3;spacingRight=3;rotatable=0;labelPosition=right;points=[];portConstraint=eastwest;strokeColor=inherit;" vertex="1" parent="ITqkuAKIRvQ48ZlTeJZX-10">
          <mxGeometry y="78" width="220" height="8" as="geometry" />
        </mxCell>
        <mxCell id="ITqkuAKIRvQ48ZlTeJZX-17" value="+ toString(): String" style="text;strokeColor=none;fillColor=none;align=left;verticalAlign=top;spacingLeft=4;spacingRight=4;overflow=hidden;rotatable=0;points=[[0,0.5],[1,0.5]];portConstraint=eastwest;whiteSpace=wrap;html=1;" vertex="1" parent="ITqkuAKIRvQ48ZlTeJZX-10">
          <mxGeometry y="86" width="220" height="26" as="geometry" />
        </mxCell>
        <mxCell id="ITqkuAKIRvQ48ZlTeJZX-18" value="StudentTechnical" style="swimlane;fontStyle=1;align=center;verticalAlign=top;childLayout=stackLayout;horizontal=1;startSize=26;horizontalStack=0;resizeParent=1;resizeParentMax=0;resizeLast=0;collapsible=1;marginBottom=0;whiteSpace=wrap;html=1;" vertex="1" parent="1">
          <mxGeometry x="524" y="350" width="220" height="34" as="geometry" />
        </mxCell>
        <mxCell id="ITqkuAKIRvQ48ZlTeJZX-24" value="" style="line;strokeWidth=1;fillColor=none;align=left;verticalAlign=middle;spacingTop=-1;spacingLeft=3;spacingRight=3;rotatable=0;labelPosition=right;points=[];portConstraint=eastwest;strokeColor=inherit;" vertex="1" parent="ITqkuAKIRvQ48ZlTeJZX-18">
          <mxGeometry y="26" width="220" height="8" as="geometry" />
        </mxCell>
        <mxCell id="ITqkuAKIRvQ48ZlTeJZX-26" value="" style="endArrow=block;endFill=0;endSize=12;html=1;rounded=0;exitX=0.5;exitY=0;exitDx=0;exitDy=0;entryX=0.523;entryY=1.038;entryDx=0;entryDy=0;entryPerimeter=0;" edge="1" parent="1" source="ITqkuAKIRvQ48ZlTeJZX-10" target="ITqkuAKIRvQ48ZlTeJZX-9">
          <mxGeometry width="160" relative="1" as="geometry">
            <mxPoint x="330" y="410" as="sourcePoint" />
            <mxPoint x="490" y="410" as="targetPoint" />
            <Array as="points">
              <mxPoint x="194" y="290" />
              <mxPoint x="419" y="290" />
            </Array>
          </mxGeometry>
        </mxCell>
        <mxCell id="ITqkuAKIRvQ48ZlTeJZX-27" value="" style="endArrow=none;endFill=0;endSize=12;html=1;rounded=0;exitX=0.5;exitY=0;exitDx=0;exitDy=0;" edge="1" parent="1" source="ITqkuAKIRvQ48ZlTeJZX-18">
          <mxGeometry width="160" relative="1" as="geometry">
            <mxPoint x="330" y="410" as="sourcePoint" />
            <mxPoint x="400" y="290" as="targetPoint" />
            <Array as="points">
              <mxPoint x="634" y="290" />
            </Array>
          </mxGeometry>
        </mxCell>
        <mxCell id="ITqkuAKIRvQ48ZlTeJZX-28" value="&amp;lt;&amp;lt;interface&amp;gt;&amp;gt;&lt;br&gt;IStudentController" style="swimlane;fontStyle=1;align=center;verticalAlign=top;childLayout=stackLayout;horizontal=1;startSize=40;horizontalStack=0;resizeParent=1;resizeParentMax=0;resizeLast=0;collapsible=1;marginBottom=0;whiteSpace=wrap;html=1;" vertex="1" parent="1">
          <mxGeometry x="279" y="535" width="270" height="100" as="geometry" />
        </mxCell>
        <mxCell id="ITqkuAKIRvQ48ZlTeJZX-30" value="" style="line;strokeWidth=1;fillColor=none;align=left;verticalAlign=middle;spacingTop=-1;spacingLeft=3;spacingRight=3;rotatable=0;labelPosition=right;points=[];portConstraint=eastwest;strokeColor=inherit;" vertex="1" parent="ITqkuAKIRvQ48ZlTeJZX-28">
          <mxGeometry y="40" width="270" height="8" as="geometry" />
        </mxCell>
        <mxCell id="ITqkuAKIRvQ48ZlTeJZX-31" value="+ computePerformance(Student student): float" style="text;strokeColor=none;fillColor=none;align=left;verticalAlign=top;spacingLeft=4;spacingRight=4;overflow=hidden;rotatable=0;points=[[0,0.5],[1,0.5]];portConstraint=eastwest;whiteSpace=wrap;html=1;" vertex="1" parent="ITqkuAKIRvQ48ZlTeJZX-28">
          <mxGeometry y="48" width="270" height="26" as="geometry" />
        </mxCell>
        <mxCell id="ITqkuAKIRvQ48ZlTeJZX-32" value="+ computeProgression(Student student): float" style="text;strokeColor=none;fillColor=none;align=left;verticalAlign=top;spacingLeft=4;spacingRight=4;overflow=hidden;rotatable=0;points=[[0,0.5],[1,0.5]];portConstraint=eastwest;whiteSpace=wrap;html=1;" vertex="1" parent="ITqkuAKIRvQ48ZlTeJZX-28">
          <mxGeometry y="74" width="270" height="26" as="geometry" />
        </mxCell>
        <mxCell id="ITqkuAKIRvQ48ZlTeJZX-33" value="" style="endArrow=block;endFill=0;endSize=12;html=1;rounded=0;dashed=1;exitX=0.5;exitY=0;exitDx=0;exitDy=0;entryX=0.526;entryY=1.154;entryDx=0;entryDy=0;entryPerimeter=0;" edge="1" parent="1" source="ITqkuAKIRvQ48ZlTeJZX-34" target="ITqkuAKIRvQ48ZlTeJZX-32">
          <mxGeometry width="160" relative="1" as="geometry">
            <mxPoint x="330" y="810" as="sourcePoint" />
            <mxPoint x="420" y="700" as="targetPoint" />
            <Array as="points">
              <mxPoint x="170" y="700" />
              <mxPoint x="421" y="700" />
            </Array>
          </mxGeometry>
        </mxCell>
        <mxCell id="ITqkuAKIRvQ48ZlTeJZX-34" value="StudentCollegeController" style="swimlane;fontStyle=1;align=center;verticalAlign=top;childLayout=stackLayout;horizontal=1;startSize=40;horizontalStack=0;resizeParent=1;resizeParentMax=0;resizeLast=0;collapsible=1;marginBottom=0;whiteSpace=wrap;html=1;" vertex="1" parent="1">
          <mxGeometry x="34" y="760" width="270" height="48" as="geometry" />
        </mxCell>
        <mxCell id="ITqkuAKIRvQ48ZlTeJZX-35" value="" style="line;strokeWidth=1;fillColor=none;align=left;verticalAlign=middle;spacingTop=-1;spacingLeft=3;spacingRight=3;rotatable=0;labelPosition=right;points=[];portConstraint=eastwest;strokeColor=inherit;" vertex="1" parent="ITqkuAKIRvQ48ZlTeJZX-34">
          <mxGeometry y="40" width="270" height="8" as="geometry" />
        </mxCell>
        <mxCell id="ITqkuAKIRvQ48ZlTeJZX-38" value="StudentTechnicalController" style="swimlane;fontStyle=1;align=center;verticalAlign=top;childLayout=stackLayout;horizontal=1;startSize=40;horizontalStack=0;resizeParent=1;resizeParentMax=0;resizeLast=0;collapsible=1;marginBottom=0;whiteSpace=wrap;html=1;" vertex="1" parent="1">
          <mxGeometry x="524" y="770" width="270" height="48" as="geometry" />
        </mxCell>
        <mxCell id="ITqkuAKIRvQ48ZlTeJZX-39" value="" style="line;strokeWidth=1;fillColor=none;align=left;verticalAlign=middle;spacingTop=-1;spacingLeft=3;spacingRight=3;rotatable=0;labelPosition=right;points=[];portConstraint=eastwest;strokeColor=inherit;" vertex="1" parent="ITqkuAKIRvQ48ZlTeJZX-38">
          <mxGeometry y="40" width="270" height="8" as="geometry" />
        </mxCell>
        <mxCell id="ITqkuAKIRvQ48ZlTeJZX-40" value="" style="endArrow=none;endFill=0;endSize=12;html=1;rounded=0;dashed=1;exitX=0.533;exitY=0.042;exitDx=0;exitDy=0;exitPerimeter=0;" edge="1" parent="1" source="ITqkuAKIRvQ48ZlTeJZX-38">
          <mxGeometry width="160" relative="1" as="geometry">
            <mxPoint x="330" y="810" as="sourcePoint" />
            <mxPoint x="420" y="700" as="targetPoint" />
            <Array as="points">
              <mxPoint x="668" y="700" />
            </Array>
          </mxGeometry>
        </mxCell>
      </root>
    </mxGraphModel>
  </diagram>
</mxfile>
